<svg xmlns="http://www.w3.org/2000/svg" viewBox="0 0 441.87 441.87"><defs><style>.cls-1{fill:none;stroke:#fff;stroke-linecap:round;stroke-linejoin:round;stroke-width:3px;}</style></defs><title>Asset 15</title><g id="Layer_2" data-name="Layer 2"><g id="Layer_1-2" data-name="Layer 1"><g id="Layer_2-2" data-name="Layer 2"><g id="Layer_1-2-2" data-name="Layer 1-2"><path class="cls-1" d="M305.62,239.5V96.43a9.32,9.32,0,0,0-9.31-9.32H250.56a9.33,9.33,0,0,0-9.31,9.32V289.78"/><path class="cls-1" d="M241.25,241.48V161.06a9.32,9.32,0,0,0-9.32-9.32H186.17a9.31,9.31,0,0,0-9.31,9.32V323.3"/><path class="cls-1" d="M176.86,241.48V223.7a9.34,9.34,0,0,0-9.29-9.36H121.78a9.33,9.33,0,0,0-9.32,9.33V345.36"/><path class="cls-1" d="M258.43,310.31a443.32,443.32,0,0,0,63.19-35.62,443.19,443.19,0,0,0,51.06-40.34L392,253.69V182.21H319.9L340.65,203a439.81,439.81,0,0,1-97.9,86,443.4,443.4,0,0,1-170.4,64.65.59.59,0,0,0,0,1.17,418.59,418.59,0,0,0,65.18-5.3A417.09,417.09,0,0,0,239.14,319"/></g></g><circle class="cls-1" cx="220.93" cy="220.93" r="219.43"/></g></g></svg>