<svg xmlns="http://www.w3.org/2000/svg" viewBox="0 0 441.87 441.87"><defs><style>.cls-1,.cls-2{fill:none;stroke:#fff;stroke-linecap:round;stroke-linejoin:round;}.cls-1{stroke-width:2.9px;}.cls-2{stroke-width:3px;}</style></defs><title>Asset 13</title><g id="Layer_2" data-name="Layer 2"><g id="Layer_1-2" data-name="Layer 1"><g id="Layer_2-2" data-name="Layer 2"><g id="Layer_1-2-2" data-name="Layer 1-2"><path class="cls-1" d="M167.27,172.5H156.58A29.53,29.53,0,0,1,127,143V118.77a29.51,29.51,0,0,1,29.44-29.54h10.72a29.55,29.55,0,0,1,29.6,29.45v24.23a29.52,29.52,0,0,1-29.45,29.59Z"/><polygon class="cls-1" points="238.95 294.57 378.87 294.57 392.87 185.26 224.95 185.26 238.95 294.57"/><circle class="cls-1" cx="308.91" cy="239.91" r="19.76"/><path class="cls-1" d="M67.82,333.73h305.3a4.14,4.14,0,0,0,4.14-4.14h0v-35H67.82a4.14,4.14,0,0,0-4.14,4.09v30.89a4.16,4.16,0,0,0,4.12,4.18Z"/><path class="cls-1" d="M84.14,294.29V213.63a40.92,40.92,0,0,1,40.91-40.91h87.51"/><path class="cls-1" d="M118.05,263.12h43.8A31.17,31.17,0,0,1,193,294.29h0"/><line class="cls-1" x1="161.85" y1="263.12" x2="161.85" y2="294.29"/><line class="cls-1" x1="188.85" y1="278.71" x2="236.92" y2="278.71"/><path class="cls-1" d="M176.22,172.72a14.33,14.33,0,0,1-28.65,0"/></g></g><circle class="cls-2" cx="220.93" cy="220.93" r="219.43"/></g></g></svg>