<svg xmlns="http://www.w3.org/2000/svg" viewBox="0 0 441.87 441.87"><defs><style>.cls-1,.cls-2{fill:none;stroke:#fff;stroke-linecap:round;stroke-linejoin:round;}.cls-1{stroke-width:2.91px;}.cls-2{stroke-width:3px;}</style></defs><title>Asset 16</title><g id="Layer_2" data-name="Layer 2"><g id="Layer_1-2" data-name="Layer 1"><g id="Layer_2-2" data-name="Layer 2"><g id="Layer_1-2-2" data-name="Layer 1-2"><path class="cls-1" d="M225.26,126.08h-7.77a21.51,21.51,0,0,1-21.55-21.48h0V87a21.5,21.5,0,0,1,21.43-21.53h7.78A21.51,21.51,0,0,1,246.7,87v17.64A21.5,21.5,0,0,1,225.26,126.08Z"/><path class="cls-1" d="M152.42,248.83h137.8v20A3.23,3.23,0,0,1,287,272.1H155.65a3.23,3.23,0,0,1-3.22-3.23h0v-20Z"/><polygon class="cls-1" points="164.56 248.84 278.08 248.84 289.43 160.16 153.21 160.16 164.56 248.84"/><path class="cls-1" d="M170.91,160.16,184,140.42a32,32,0,0,1,26.69-14.34h10.65"/><path class="cls-1" d="M152.64,248.83l-3.9-3.89a35.35,35.35,0,0,1-4.49-44.5L155.75,183"/><path class="cls-1" d="M271.72,160.16l-13.06-19.74A32,32,0,0,0,232,126.08H221.32"/><path class="cls-1" d="M290,248.83l3.89-3.89a35.33,35.33,0,0,0,4.49-44.5l-11.82-17.87"/><circle class="cls-1" cx="221.32" cy="204.5" r="16.03"/><polygon class="cls-1" points="174.23 272.11 174.23 366.29 206.72 366.29 221.32 272.11 174.23 272.11"/><polygon class="cls-1" points="268.41 272.11 268.41 366.29 235.92 366.29 221.32 272.11 268.41 272.11"/><path class="cls-1" d="M151.94,260.47H131.47a8,8,0,0,0-7.94,7.94V288.5a7.94,7.94,0,0,0,7.92,7.94h42.2"/><path class="cls-1" d="M268.78,296.44h42.39a7.93,7.93,0,0,0,7.94-7.92V268.41a7.94,7.94,0,0,0-7.94-7.94H290.74"/><path class="cls-1" d="M314.82,261.48V225.91A29.92,29.92,0,0,1,344.75,196h0a29.92,29.92,0,0,1,29.93,29.91h0v9.32a18.39,18.39,0,0,1-18.4,18.39h0v94.29a18.4,18.4,0,0,1-18.35,18.45H318.41"/><path class="cls-1" d="M127,261.48V225.91A29.91,29.91,0,0,0,97.11,196h0a29.91,29.91,0,0,0-29.92,29.92h0v9.32a18.39,18.39,0,0,0,18.39,18.39h0v94.29a18.41,18.41,0,0,0,18.35,18.45H290.51"/><path class="cls-1" d="M344.75,196V163.94a60.14,60.14,0,0,0-60.14-60.13H246.7"/><path class="cls-1" d="M97.1,196V163.94a60.14,60.14,0,0,1,60.14-60.13h37.91"/></g></g><circle class="cls-2" cx="220.93" cy="220.93" r="219.43"/></g></g></svg>