<svg xmlns="http://www.w3.org/2000/svg" viewBox="0 0 441.87 441.87"><defs><style>.cls-1,.cls-2{fill:none;stroke:#fff;stroke-linecap:round;stroke-linejoin:round;}.cls-1{stroke-width:2.92px;}.cls-2{stroke-width:3px;}</style></defs><title>Asset 14</title><g id="Layer_2" data-name="Layer 2"><g id="Layer_1-2" data-name="Layer 1"><g id="Layer_2-2" data-name="Layer 2"><g id="Layer_1-2-2" data-name="Layer 1-2"><path class="cls-1" d="M287.17,193.33V133.65a3.28,3.28,0,0,0-1-2.33L243.3,90a3.28,3.28,0,0,0-3.4-.72L124.08,131.62a16.46,16.46,0,0,0-10.82,15.48v211H365.11V324.61a25.19,25.19,0,0,0-50.38,0V358.1"/><path class="cls-1" d="M113.26,298.52h-.6a35.87,35.87,0,0,0-35.9,35.82v20.49a3.29,3.29,0,0,0,3.29,3.29h33.21"/><line class="cls-1" x1="76.92" y1="331.12" x2="113.21" y2="331.12"/><line class="cls-1" x1="243.46" y1="331.12" x2="314.73" y2="331.12"/><path class="cls-1" d="M331.42,300.9V229.34A16.44,16.44,0,0,0,315,212.89H241.83V358.1"/><path class="cls-1" d="M143,124.79l20.44-7.37V93.16a10.22,10.22,0,0,0-20.44,0Z"/><line class="cls-1" x1="241.83" y1="212.89" x2="241.83" y2="89.28"/><line class="cls-1" x1="241.83" y1="121.39" x2="143.02" y2="155.18"/><line class="cls-1" x1="241.83" y1="152.9" x2="143.02" y2="186.68"/><line class="cls-1" x1="241.83" y1="184.39" x2="143.02" y2="218.18"/><line class="cls-1" x1="241.83" y1="215.9" x2="143.02" y2="249.68"/><line class="cls-1" x1="162.69" y1="274.46" x2="143.02" y2="281.18"/><line class="cls-1" x1="241.83" y1="247.4" x2="176.8" y2="269.63"/><path class="cls-1" d="M143,358.1V319.72a3.28,3.28,0,0,1,2.23-3.11l23.57-8.07,21.41-7.33a3.29,3.29,0,0,1,4.36,3.12v54.6"/><rect class="cls-1" x="262.5" y="232.79" width="48.01" height="15.74" rx="3.29"/><rect class="cls-1" x="262.5" y="265.58" width="48.01" height="15.74" rx="3.29"/><rect class="cls-1" x="262.5" y="298.38" width="19.79" height="15.74" rx="2.11"/><line class="cls-1" x1="168.82" y1="358.1" x2="168.82" y2="308.54"/></g></g><circle class="cls-2" cx="220.93" cy="220.93" r="219.43"/></g></g></svg>