<svg xmlns="http://www.w3.org/2000/svg" viewBox="0 0 441.87 441.87"><defs><style>.cls-1,.cls-2{fill:none;stroke:#fff;stroke-linecap:round;stroke-linejoin:round;}.cls-1{stroke-width:2.93px;}.cls-2{stroke-width:3px;}</style></defs><title>Asset 17</title><g id="Layer_2" data-name="Layer 2"><g id="Layer_1-2" data-name="Layer 1"><g id="Layer_2-2" data-name="Layer 2"><g id="Layer_1-2-2" data-name="Layer 1-2"><path class="cls-1" d="M316,385.16V249.26a9.17,9.17,0,0,0-9.16-9.18H261.8a9.17,9.17,0,0,0-9.18,9.16V370.76"/><path class="cls-1" d="M252.62,385.16V297.67a9.18,9.18,0,0,0-9.18-9.18H198.38a9.18,9.18,0,0,0-9.19,9.18v87.49"/><path class="cls-1" d="M189.2,385.16V330.34a9.18,9.18,0,0,0-9.18-9.17H135a9.19,9.19,0,0,0-9.19,9.17v54.82"/><line class="cls-1" x1="336.03" y1="385.16" x2="105.67" y2="385.16"/><line class="cls-1" x1="269.05" y1="128.61" x2="269.05" y2="56.71"/><line class="cls-1" x1="269.05" y1="240.08" x2="269.05" y2="150.81"/><polyline class="cls-1" points="269.05 68.12 335.12 68.12 316.29 86.95 336.2 106.87 280.67 106.87"/><path class="cls-1" d="M193.31,187.06l6.56-18.38a1.78,1.78,0,0,1,.78-.93l71.06-40.19a1.73,1.73,0,0,1,2.36.64,2.52,2.52,0,0,1,.15.34c1.54,5,3.67,18.34-13.67,29.41l-43,26.87"/><path class="cls-1" d="M189.2,201.26l-7.89,26.81a12.27,12.27,0,0,0-.5,3.46v32.39a19.08,19.08,0,0,1-1.75,8l-22.75,49.25,40.5-45.28a19.12,19.12,0,0,0,4.14-7.54l24.94-88.77"/><path class="cls-1" d="M181.06,229.46l34.52-13,22.92,28a7.43,7.43,0,0,1,1.62,5.47l-4.31,38.47"/><path class="cls-1" d="M206.73,248,217,254.09a7.41,7.41,0,0,1,3.55,5.39l3.79,29"/><rect class="cls-1" x="191.07" y="129.14" width="28.13" height="33.58" rx="11.91" transform="translate(-45.48 122.12) rotate(-30)"/></g></g><circle class="cls-2" cx="220.93" cy="220.93" r="219.43"/></g></g></svg>