<svg xmlns="http://www.w3.org/2000/svg" viewBox="0 0 122.8 59.5"><defs><style>.cls-1,.cls-2{fill-rule:evenodd;}.cls-2{fill:#005687;}</style></defs><title>Agah logo</title><g id="Layer_2" data-name="Layer 2"><g id="Layer_1-2" data-name="Layer 1"><path class="cls-1" d="M17.38,0a17.28,17.28,0,1,0,6.5,33.3c-.86-1.94-1.77-4.07-2.71-6.38a10.34,10.34,0,1,1,6.63-9.64h7A17.34,17.34,0,0,0,17.38,0Z"/><path class="cls-2" d="M17.37,17.29l3.8,9.62a10.11,10.11,0,0,0,6.62-9.62Z"/><path class="cls-1" d="M68.75,27.31v7.54c.65.1,14.89,0,16,0,1.32,0,9-.07,9.92.05a1.29,1.29,0,0,1,1.16.82,13.74,13.74,0,0,1,.2,3.79c-.65.09-13,0-14,0l-14.11,0c-4.42,0-4.33.59-4.31-2.71V19.23c0-1.09.07-2.45,0-3.51-.93-.15-5.3-.06-6.8-.06a21.08,21.08,0,0,0-2.27.06v8a10.87,10.87,0,0,0,1.21.76c.07,1.41,0,3,0,4.41,0,2.36-.1,11.5.11,13.14.35,2.77,1.45,4.24,4.07,4.74s6,.29,8.62.29h35.4c0-3.5,0-7,0-10.52s.2-6.83-2.23-8.32c-2.1-1.28-6.68-1-9.5-1-3.47-.07-7,0-10.49,0,.11-.16,8.68-5.62,10-6.45.25-.15.31-.24.54-.39,2.28-1.48,4.78-3,7-4.49.21-.14.18-.05.22-.26-1-.09-9.23,0-10.5,0a6.18,6.18,0,0,0-2.47.17c-1.39,1-3.42,2.22-4.87,3.14L70.34,26.26A13.26,13.26,0,0,0,68.75,27.31Z"/><path class="cls-1" d="M36.68,31.76H44.5v5.85c0,.54.13,1.45-.3,1.7-.59.35-6.41.31-7.51.25l0-7.8H28.79V47.07c5.64,0,11.73.1,17.31,0,7.06-.15,6.3-4.72,6.3-11.17V30.1c0-1.85.11-4,0-5.84H36.69Z"/><path class="cls-1" d="M98.92,26.44l7.87,0V23.31c.78-.08,4.77,0,5.87,0a40.31,40.31,0,0,0,5.74-.18A4.48,4.48,0,0,0,122,20.8a12.21,12.21,0,0,0,.8-5.12c-2.81-.11-5.74,0-8.59,0-1.43,0-2.91,0-4.29,0s-3-.06-4.32,0c-2.92.19-5,.55-6,2.75S98.94,23.88,98.92,26.44Z"/><path class="cls-1" d="M106.9,26.43c-.18.42,0,15.18,0,18v2.76c8.52.4,7.93-3.53,8-11.22V26.45C114.3,26.36,108.52,26.4,106.9,26.43Z"/><path class="cls-1" d="M68.78,21.58v3.67a17.87,17.87,0,0,0,1.88-1.16l5.62-3.57c.92-.58,3.92-2.42,4.65-3,.23-.18.67-.43.94-.61l1.64-1,.11-.08,0,0,.07-.06,0,0c-1.68-.09-3.52,0-5.23,0-.64,0-.56,0-1,.32l-4,2.53C71.91,19.52,70.45,20.58,68.78,21.58Z"/><path class="cls-1" d="M7.6,56.77v.5c0,.17,0,.33,0,.48H3.1a3,3,0,0,1-.65,0,.57.57,0,0,1-.39-.3,1.46,1.46,0,0,1-.12-.67v-2.5h1v2.18a.4.4,0,0,0,.3.44h3l-.89-.4c-.24-.13-.43-.23-.59-.33a2.12,2.12,0,0,1-.36-.26.9.9,0,0,1-.19-.22.75.75,0,0,1-.1-.2A1,1,0,0,0,4,55.23a1.6,1.6,0,0,1,.14-.67.59.59,0,0,1,.42-.29l.25,0H7.6v.89H5.27c-.09,0-.14.06-.15.1a.24.24,0,0,0,.09.16,1.87,1.87,0,0,0,.28.2l.4.22.47.24.47.25.44.25A2.35,2.35,0,0,1,7.6,56.77Zm113.78-.57a.56.56,0,0,0-.22-.48l-.16,0-.23,0h-4.08v-1l1.49-1,1.49-1,.62.58-2.24,1.43h3.11l.36,0,.25,0a.57.57,0,0,1,.43.27,1.38,1.38,0,0,1,.13.69v2H116a3,3,0,0,1-.65,0,.6.6,0,0,1-.39-.3,1.46,1.46,0,0,1-.12-.67V53.08h1v3.33a.4.4,0,0,0,.3.44h5.32Zm-7.15,2.29a2.21,2.21,0,0,1,0,.39,1,1,0,0,1-.09.29.59.59,0,0,1-.17.18.64.64,0,0,1-.24.1h0a1.12,1.12,0,0,1-.27,0l-.36,0h-.56v-.89h.39l.14,0a.24.24,0,0,0,.18-.12.83.83,0,0,0,0-.31V54.59h1Zm-3-2.29a.55.55,0,0,0-.21-.48l-.16,0-.23,0h-4.08v-1l1.49-1,1.49-1,.61.58-2.23,1.43H111l.35,0,.26,0a.58.58,0,0,1,.43.27,1.5,1.5,0,0,1,.13.69v2h-6.6v.74a2.21,2.21,0,0,1,0,.39.76.76,0,0,1-.1.29.46.46,0,0,1-.16.18.63.63,0,0,1-.25.1h0a1,1,0,0,1-.26,0l-.37,0h-.56v-.89h.4l.14,0a.22.22,0,0,0,.17-.12.67.67,0,0,0,.05-.31V54.59h1v2.26h5.64Zm-4.68-1.88,2.76-1.76-.37-.37-2,1.29-.36.23Zm-1.92-.49h1v-.75h-1Zm-1.27,3.92h-1V53.08h1Zm-1.58.74a2.21,2.21,0,0,1,0,.39.76.76,0,0,1-.1.29.46.46,0,0,1-.16.18.63.63,0,0,1-.25.1h0a1,1,0,0,1-.26,0l-.37,0h-.56v-.89h.4l.14,0a.22.22,0,0,0,.17-.12.67.67,0,0,0,0-.31V54.59h1Zm-6.25-1.64h.57a.4.4,0,0,0,.3-.44V54.23h1v2.5a1.5,1.5,0,0,1-.12.68.59.59,0,0,1-.39.29,3.05,3.05,0,0,1-.66,0h-1v.74a2.25,2.25,0,0,1,0,.4.83.83,0,0,1-.1.29.52.52,0,0,1-.18.18.67.67,0,0,1-.26.1h0a3.64,3.64,0,0,1-.59,0h-.72v-.89h.62a.39.39,0,0,0,.23-.15.54.54,0,0,0,.08-.31v-.4h-2l-.24,0h0a1.28,1.28,0,0,1-.26-.1.66.66,0,0,1-.18-.19,1.1,1.1,0,0,1-.1-.29,2.37,2.37,0,0,1,0-.41v-1.5a1.49,1.49,0,0,1,.13-.68.6.6,0,0,1,.43-.28l.25,0h3v2.62h.4Zm1.26,2.22v-.76h-1v.76Zm-3.9-4h-.24l-.14,0a.25.25,0,0,0-.15.14.55.55,0,0,0-.06.28v.84c0,.29.13.44.38.44h1.5V55.12Zm-2,3.37a2.21,2.21,0,0,1,0,.39,1,1,0,0,1-.1.29.56.56,0,0,1-.16.18.63.63,0,0,1-.25.1h0a1,1,0,0,1-.27,0l-.36,0h-.56v-.89h.4l.14,0a.22.22,0,0,0,.17-.12.67.67,0,0,0,0-.31V54.59h1ZM80.28,54.23h1v3.5a.39.39,0,0,0,.3.44H83a.4.4,0,0,0,.3-.44V54.22h1v2.64h.9l.15,0,.06,0a.32.32,0,0,0,.2-.15.51.51,0,0,0,.06-.27V54.23h1v2.18a.59.59,0,0,0,.07.29.41.41,0,0,0,.22.16h.81a.43.43,0,0,0,.29-.45V54.23h1v2.52a1.44,1.44,0,0,1-.12.66.61.61,0,0,1-.41.29l-.18,0-.28,0H86.62a.5.5,0,0,1-.2-.08.53.53,0,0,1-.18-.16,1.39,1.39,0,0,1-.16-.3,1,1,0,0,1-.13.26.56.56,0,0,1-.14.16.55.55,0,0,1-.15.08l-.17,0H84.2v.3a1.53,1.53,0,0,1-.12.68.59.59,0,0,1-.39.29,3.82,3.82,0,0,1-.65,0H80.28Zm-2.74,3.52h-1V53.08h1ZM76,58.49a2.25,2.25,0,0,1,0,.4,1.1,1.1,0,0,1-.1.29.77.77,0,0,1-.18.18.67.67,0,0,1-.26.1h0a1.29,1.29,0,0,1-.24,0H74.08v-.89h.62a.42.42,0,0,0,.24-.15.55.55,0,0,0,.07-.31v-.4H73l-.25,0h0a1.09,1.09,0,0,1-.26-.1.66.66,0,0,1-.18-.19,1.1,1.1,0,0,1-.1-.29,2.37,2.37,0,0,1,0-.41v-1.5a1.46,1.46,0,0,1,.13-.68.6.6,0,0,1,.43-.28l.25,0h3Zm-2.24-3.37h-.24l-.15,0a.25.25,0,0,0-.15.14.7.7,0,0,0,0,.28v.84c0,.29.12.44.38.44H75V55.12Zm-2,3.37a2.21,2.21,0,0,1,0,.39.76.76,0,0,1-.1.29.46.46,0,0,1-.16.18.64.64,0,0,1-.24.1h0a1.12,1.12,0,0,1-.27,0l-.36,0H70v-.89h.4l.14,0a.22.22,0,0,0,.17-.12.67.67,0,0,0,0-.31V54.59h1Zm-2.28-.74h-1V53.08h1Zm-7.29-1.59h1v2a.39.39,0,0,0,.31.44l3.18,0a.42.42,0,0,0,.24-.15.54.54,0,0,0,.08-.31v-.4h-2l-.24,0h0a1.28,1.28,0,0,1-.26-.1.52.52,0,0,1-.17-.19.83.83,0,0,1-.1-.29,2.37,2.37,0,0,1,0-.41v-1.5a1.48,1.48,0,0,1,.12-.68.6.6,0,0,1,.43-.28l.25,0h3v4.26a2.25,2.25,0,0,1,0,.4.83.83,0,0,1-.1.29.52.52,0,0,1-.18.18.67.67,0,0,1-.26.1h0a1.56,1.56,0,0,1-.25,0h-4.9Zm3.47-1h-.24l-.14,0a.25.25,0,0,0-.15.14.55.55,0,0,0-.06.28v.84c0,.29.13.44.38.44H67V55.12Zm.18-1.39h-1V53h1Zm1.38,0h-1V53h1Zm-9.63,3.12h.57a.4.4,0,0,0,.31-.44V54.23h1v2.5a1.5,1.5,0,0,1-.12.68.59.59,0,0,1-.39.29,3.05,3.05,0,0,1-.66,0H50.77a2.9,2.9,0,0,1-.65,0,.6.6,0,0,1-.39-.3,1.46,1.46,0,0,1-.12-.67V53.08h1v3.33a.4.4,0,0,0,.3.44h.62V54.22H56.3l.25,0a.55.55,0,0,1,.43.27,1.37,1.37,0,0,1,.14.69v1.62h.47Zm1.27,2.22h-1v-.76h1Zm-2.7-2.21V55.68A.55.55,0,0,0,56,55.2l-.16-.05-.23,0h-.78v1.73ZM53.8,55.13H52.43v1.35a.45.45,0,0,0,.07.27.32.32,0,0,0,.23.11h.73c.22,0,.33-.13.33-.38Zm-8.07,1.73h2a.32.32,0,0,0,.22-.15.59.59,0,0,0,.07-.29v-.85a.59.59,0,0,0-.07-.29.44.44,0,0,0-.23-.16h-2v-.89h2.12a2.61,2.61,0,0,1,.62.05.61.61,0,0,1,.41.29,1.44,1.44,0,0,1,.12.66v1.51a2.25,2.25,0,0,1,0,.4,1,1,0,0,1-.09.28.6.6,0,0,1-.16.19.82.82,0,0,1-.25.1h0a2,2,0,0,1-.27,0H45.73Zm-.66.89h-1V53.08h1Zm-1.59.74a2.21,2.21,0,0,1,0,.39.76.76,0,0,1-.1.29.46.46,0,0,1-.16.18.64.64,0,0,1-.24.1h0a1.12,1.12,0,0,1-.27,0l-.36,0h-.57v-.89h.4l.14,0a.22.22,0,0,0,.17-.12.67.67,0,0,0,.05-.31V54.59h1ZM41,57.24c0,.35-.22.52-.65.52-.26,0-.43-.06-.51-.2a1.19,1.19,0,0,1-.09-.55,3.69,3.69,0,0,1,.11-1.08.91.91,0,0,1,.84-.59v.31a.53.53,0,0,0-.5.36,2,2,0,0,0-.09.64C40.7,56.65,41,56.85,41,57.24Zm-5.19-1a.53.53,0,0,0-.22-.48.5.5,0,0,0-.16,0l-.23,0H31.13v-1l1.49-1,1.48-1,.62.58-2.23,1.43H35.6l.35,0,.25,0a.55.55,0,0,1,.43.27,1.37,1.37,0,0,1,.14.69v2H30.41a2.9,2.9,0,0,1-.65,0,.6.6,0,0,1-.4-.3,1.46,1.46,0,0,1-.12-.67V53.08h1v3.33c0,.24.09.39.29.44h5.32ZM25,57.75v-.9h.43V53.08h1v3.77h1a.4.4,0,0,0,.29-.44V53.07h.95v3.66a1.46,1.46,0,0,1-.12.67.58.58,0,0,1-.39.3,2.9,2.9,0,0,1-.65,0Zm-2.64.74a2.25,2.25,0,0,1,0,.4.83.83,0,0,1-.1.29.58.58,0,0,1-.17.18.74.74,0,0,1-.26.1h0a1.56,1.56,0,0,1-.25,0H20.51v-.89h.62a.42.42,0,0,0,.24-.15.65.65,0,0,0,.07-.31v-.4h-2l-.25,0h0l-.26-.1a.52.52,0,0,1-.17-.19.83.83,0,0,1-.1-.29,2.37,2.37,0,0,1,0-.41v-1.5a1.34,1.34,0,0,1,.13-.68.57.57,0,0,1,.42-.28l.26,0h3Zm-2.23-3.37h-.24l-.15,0a.25.25,0,0,0-.15.14.55.55,0,0,0-.06.28v.84c0,.29.13.44.38.44h1.5V55.12ZM15.8,57.75h-1V53.08h1Zm-3.46-.9h.54a.4.4,0,0,0,.3-.44V54.23h1v2.5a1.5,1.5,0,0,1-.12.68.59.59,0,0,1-.39.29,3.05,3.05,0,0,1-.66,0H11.83v.74a1.51,1.51,0,0,1,0,.39.76.76,0,0,1-.09.29.49.49,0,0,1-.17.18.53.53,0,0,1-.24.1h0a1.06,1.06,0,0,1-.27,0l-.36,0h-.56v-.89h.4l.14,0a.22.22,0,0,0,.17-.12.83.83,0,0,0,0-.31V54.59h1v2.26h.51Zm1.78-3.12h-1V53h1Zm-4.4,4.76a2.21,2.21,0,0,1,0,.39.76.76,0,0,1-.1.29.46.46,0,0,1-.16.18.64.64,0,0,1-.24.1h0a1,1,0,0,1-.26,0l-.36,0H8v-.89h.4l.14,0a.22.22,0,0,0,.17-.12.67.67,0,0,0,0-.31V54.59h1Zm-1-4.66H7.84v-.68h.87Zm1.23,0H9.08v-.68h.86Zm-.62-1H8.46v-.68h.86Z"/></g></g></svg>